<svg width="15" height="15" viewBox="0 0 15 15" fill="none" xmlns="http://www.w3.org/2000/svg">
<g clip-path="url(#clip0_1_70314)">
<path d="M13.3333 2.0835H1.66667C1.22464 2.0835 0.800716 2.25909 0.488155 2.57165C0.175595 2.88421 0 3.30814 0 3.75016L0 11.2502C0 11.6922 0.175595 12.1161 0.488155 12.4287C0.800716 12.7412 1.22464 12.9168 1.66667 12.9168H13.3333C13.7754 12.9168 14.1993 12.7412 14.5118 12.4287C14.8244 12.1161 15 11.6922 15 11.2502V3.75016C15 3.30814 14.8244 2.88421 14.5118 2.57165C14.1993 2.25909 13.7754 2.0835 13.3333 2.0835Z" fill="#DA251D"/>
<path d="M8.23042 6.682L7.5 4.43408L6.76958 6.682H4.40625L6.31833 8.07075L5.58792 10.3187L7.5 8.9295L9.41208 10.3187L8.68167 8.07075L10.5937 6.682H8.23042Z" fill="#FFFF00"/>
</g>
<defs>
<clipPath id="clip0_1_70314">
<rect width="15" height="15" fill="white"/>
</clipPath>
</defs>
</svg>
